<svg version="1.1" id="Layer_1" xmlns="http://www.w3.org/2000/svg" xmlns:xlink="http://www.w3.org/1999/xlink" x="0px" y="0px" viewBox="8 180 160 140" style="width: 100px;" xml:space="preserve" data-imageid="user-status-32" imageName="User Status" class="illustrations_image">
<style type="text/css">
	.st0_user-status-32{fill:#FFFFFF;}
	.st1_user-status-32{fill:#093F68;}
	.st2_user-status-32{fill:#68E1FD;}
	.st3_user-status-32{fill:#725858;}
	.st4_user-status-32{fill:#FFC9B0;}
	.st5_user-status-32{fill:#70CC40;}
	.st6_user-status-32{fill:#F56132;}
</style>
<g id="character-1_user-status-32">
	<path class="st0_user-status-32" d="M163.2,250c0,26.8-15.6,51-40,62.1c-4,1.8-8.1,3.2-12.3,4.2c-10.5,2.5-21.4,2.5-31.9,0&#10;&#9;&#9;c-4.2-1-8.3-2.4-12.3-4.2c-34.3-15.6-49.5-56-33.9-90.3s56-49.5,90.3-33.9C147.5,199,163.2,223.3,163.2,250z"/>
	<path class="st1_user-status-32" d="M95,320c-5.5,0-11-0.6-16.4-1.9c-4.3-1-8.6-2.5-12.6-4.3c-35.2-16-50.7-57.5-34.7-92.7s57.5-50.7,92.7-34.7&#10;&#9;&#9;s50.7,57.5,34.7,92.7c-7,15.4-19.3,27.7-34.7,34.7c-4.1,1.9-8.3,3.3-12.6,4.3C106,319.4,100.5,320.1,95,320z M95,183.6&#10;&#9;&#9;c-36.7,0-66.4,29.7-66.4,66.4c0,26,15.2,49.7,38.9,60.5c3.9,1.8,7.9,3.1,12,4.1c10.2,2.4,20.8,2.4,31,0c4.1-1,8.1-2.3,12-4.1&#10;&#9;&#9;c33.4-15.2,48.1-54.6,32.9-87.9C144.6,198.8,121,183.6,95,183.6z"/>
	<g id="character-1-2_user-status-32">
		<path class="st2_user-status-32 targetColor" d="M123.2,296.3v15.8c-4,1.8-8.1,3.2-12.3,4.2c-10.5,2.5-21.4,2.5-31.9,0c-4.2-1-8.3-2.4-12.3-4.2v-15.8&#10;&#9;&#9;&#9;c0-10.5,8.5-19.1,19.1-19.1c0,0,0,0,0,0h18.2C114.6,277.2,123.2,285.8,123.2,296.3z" style="fill: rgb(225, 29, 72);"/>
		<path class="st1_user-status-32" d="M95,320c-5.5,0-11-0.6-16.4-1.9c-4.3-1-8.6-2.5-12.6-4.3c-0.7-0.3-1.1-1-1.1-1.7v-15.8&#10;&#9;&#9;&#9;c0-11.6,9.4-20.9,20.9-21h18.2c11.5,0.1,20.9,9.4,20.9,21v15.8c0,0.7-0.4,1.4-1.1,1.7c-4.1,1.9-8.3,3.3-12.6,4.3&#10;&#9;&#9;&#9;C106,319.4,100.5,320,95,320z M68.6,310.9c3.5,1.5,7.2,2.7,10.9,3.6c10.2,2.4,20.8,2.4,31,0c3.7-0.9,7.4-2.1,10.9-3.6v-14.6&#10;&#9;&#9;&#9;c0-9.6-7.7-17.3-17.3-17.3c0,0,0,0,0,0H85.8c-9.5,0-17.3,7.7-17.3,17.3L68.6,310.9z M123.2,312.1L123.2,312.1z"/>
		<polygon class="st0_user-status-32" points="94.9,313.7 90.7,279.7 100,280.1 &#9;&#9;"/>
		<path class="st1_user-status-32" d="M95,315.5L95,315.5c-0.9,0-1.7-0.7-1.8-1.6l-4.3-34c-0.1-1,0.6-1.9,1.6-2c0.1,0,0.2,0,0.3,0l9.4,0.4&#10;&#9;&#9;&#9;c0.5,0,1,0.3,1.3,0.7c0.3,0.4,0.5,0.9,0.4,1.4l-5,33.6C96.8,314.9,95.9,315.6,95,315.5z M92.8,281.6l2.4,18.7l2.8-18.5L92.8,281.6&#10;&#9;&#9;&#9;z"/>
		<path class="st3_user-status-32" d="M92.6,199.4c1.2-0.2,2.4-0.3,3.6-0.3c5.5,0,11.2-0.1,16.2,2.3c10.4,5.2,16.9,15.7,17,27.3v22.6H62&#10;&#9;&#9;&#9;c-0.4-1.3,0.2-2.9,0.3-4.2c0-1.5-0.3-2.9-0.7-4.4c-0.8-3.7-1.2-7.4-1.3-11.2c0-5.9,1.3-11.8,3.7-17.2c1.3-3.3,2.9-6.7,5.8-8.7&#10;&#9;&#9;&#9;s7.5-2.1,9.5,0.8C82.8,202.6,87.5,200.2,92.6,199.4z"/>
		<path class="st1_user-status-32" d="M129.4,253.2H62c-0.8,0-1.5-0.5-1.8-1.3c-0.3-1.2-0.3-2.4,0-3.6c0.1-0.4,0.1-0.8,0.2-1.2c0-1-0.1-2-0.4-2.9&#10;&#9;&#9;&#9;l-0.2-1c-0.8-3.8-1.3-7.7-1.4-11.6c0-6.2,1.3-12.3,3.8-18c1.4-3.4,3.1-7.2,6.4-9.5c3-2.1,7.6-2.6,10.6-0.3c3.6-3.3,8.2-5.4,13-6.2&#10;&#9;&#9;&#9;l0,0c1.3-0.2,2.6-0.3,3.9-0.3h1c5.3,0,10.9,0,16,2.5c11,5.4,18,16.6,18.1,28.9v22.6C131.2,252.3,130.4,253.1,129.4,253.2&#10;&#9;&#9;&#9;C129.4,253.2,129.4,253.2,129.4,253.2z M63.8,249.5h63.7v-20.8c0-10.9-6.2-20.8-16-25.6c-4.4-2.1-9.2-2.1-14.4-2.1h-1&#10;&#9;&#9;&#9;c-1.1,0-2.2,0.1-3.3,0.3l0,0c-4.7,0.7-9,3-12.2,6.4c-0.4,0.4-0.9,0.6-1.5,0.6c-0.5,0-1.1-0.3-1.4-0.8c-1.4-2-4.9-1.8-7-0.3&#10;&#9;&#9;&#9;c-2.5,1.8-3.9,4.9-5.2,7.9c-2.3,5.2-3.5,10.8-3.5,16.5c0.1,3.7,0.5,7.3,1.3,10.9c0.1,0.3,0.1,0.6,0.2,0.9c0.3,1.3,0.5,2.6,0.5,3.9&#10;&#9;&#9;&#9;c0,0.6-0.1,1.1-0.2,1.7C63.9,249.1,63.8,249.3,63.8,249.5z"/>
		<path class="st4_user-status-32" d="M90.4,273.6h9.6l0,0v7.4c0,1.2-1,2.2-2.2,2.2c0,0,0,0,0,0h-5.1c-1.2,0-2.2-1-2.2-2.2l0,0&#10;&#9;&#9;&#9;C90.4,280.9,90.4,273.6,90.4,273.6z"/>
		<path class="st1_user-status-32" d="M95.9,285h-1.4c-3.3,0-5.9-2.6-5.9-5.9v-5.5c0-1,0.8-1.8,1.8-1.8h9.6c1,0,1.8,0.8,1.8,1.8v5.5&#10;&#9;&#9;&#9;C101.8,282.3,99.2,285,95.9,285z M92.2,275.4v3.7c0,1.2,1,2.2,2.2,2.2l0,0h1.4c1.2,0,2.2-1,2.2-2.2l0,0v-3.7H92.2z"/>
		<ellipse class="st4_user-status-32" cx="67.8" cy="248.6" rx="9.3" ry="8"/>
		<path class="st1_user-status-32" d="M67.8,258.5c-6.2,0-11.2-4.4-11.2-9.9s5-9.9,11.2-9.9s11.2,4.4,11.2,9.9S73.9,258.5,67.8,258.5z M67.8,242.4&#10;&#9;&#9;&#9;c-4.1,0-7.5,2.8-7.5,6.2s3.4,6.2,7.5,6.2s7.5-2.8,7.5-6.2S71.9,242.4,67.8,242.4L67.8,242.4z"/>
		<ellipse class="st4_user-status-32" cx="122.2" cy="248.6" rx="9.3" ry="8"/>
		<path class="st1_user-status-32" d="M122.2,258.5c-6.2,0-11.2-4.4-11.2-9.9s5-9.9,11.2-9.9s11.2,4.4,11.2,9.9S128.3,258.5,122.2,258.5z&#10;&#9;&#9;&#9; M122.2,242.4c-4.1,0-7.5,2.8-7.5,6.2s3.4,6.2,7.5,6.2s7.5-2.8,7.5-6.2S126.3,242.4,122.2,242.4L122.2,242.4z"/>
		<path class="st4_user-status-32" d="M95.2,274.8L95.2,274.8c-15.5,0-28.2-12.6-28.2-28.1v-15.2c0,0,7.1-4.1,9.2-10.4c0,0,10.8,12.3,21.2,11.5&#10;&#9;&#9;&#9;c8.7-0.7,17.3-1.9,25.9-3.6v17.7C123.3,262.2,110.7,274.8,95.2,274.8z"/>
		<path class="st1_user-status-32" d="M95.2,276.6c-16.6,0-30-13.4-30-30l0,0v-15.1c0-0.7,0.4-1.3,0.9-1.6c0.1,0,6.5-3.8,8.4-9.4&#10;&#9;&#9;&#9;c0.2-0.6,0.7-1.1,1.4-1.2c0.6-0.1,1.3,0.1,1.7,0.6c0.1,0.1,10.4,11.6,19.7,10.9c8.6-0.7,17.2-1.9,25.7-3.6c0.5-0.1,1.1,0,1.5,0.4&#10;&#9;&#9;&#9;c0.4,0.3,0.7,0.9,0.7,1.4v17.7C125.2,263.2,111.8,276.6,95.2,276.6z M68.9,232.5v14.1c-0.3,14.5,11.3,26.5,25.8,26.8&#10;&#9;&#9;&#9;c14.5,0.3,26.5-11.3,26.8-25.8c0-0.3,0-0.7,0-1v-15.5c-4.2,0.8-13.8,2.4-23.9,3.2c-8.6,0.7-17.1-6.4-20.8-10.1&#10;&#9;&#9;&#9;C74.8,227.6,72.1,230.4,68.9,232.5z"/>
		<path class="st1_user-status-32" d="M95.1,253.2c-0.9,0-1.8-0.1-2.7-0.2c-1-0.1-1.7-1.1-1.6-2.1c0.1-1,1.1-1.7,2.1-1.6c0.1,0,0.1,0,0.2,0&#10;&#9;&#9;&#9;c0.8,0.1,1.7,0.2,2.6,0.2c-0.5-1.7-1.2-3.3-2-4.8c-0.5-0.9-0.1-2,0.8-2.5c0.9-0.5,2-0.1,2.5,0.8c2.2,4.2,2.9,7,2.2,8.6&#10;&#9;&#9;&#9;c-0.3,0.7-0.9,1.2-1.6,1.4C96.6,253.1,95.9,253.2,95.1,253.2z"/>
		<path class="st1_user-status-32" d="M79,318.2c-1,0-1.8-0.8-1.8-1.8v-18.4c0-1,0.8-1.8,1.8-1.8s1.8,0.8,1.8,1.8v18.4&#10;&#9;&#9;&#9;C80.8,317.4,80,318.2,79,318.2z"/>
		<path class="st1_user-status-32" d="M110.9,318.2c-1,0-1.8-0.8-1.8-1.8v-18.4c0-1,0.8-1.8,1.8-1.8s1.8,0.8,1.8,1.8v18.4&#10;&#9;&#9;&#9;C112.7,317.4,111.9,318.2,110.9,318.2z"/>
	</g>
</g>
<g id="check-mark_user-status-32">
	<circle class="st5_user-status-32" cx="148.1" cy="295.5" r="18.7"/>
	<path class="st1_user-status-32" d="M148.1,316c-11.3,0-20.5-9.2-20.5-20.5s9.2-20.5,20.5-20.5s20.5,9.2,20.5,20.5c0,0,0,0,0,0&#10;&#9;&#9;C168.6,306.8,159.4,316,148.1,316z M148.1,278.6c-9.3,0-16.9,7.5-16.9,16.9c0,9.3,7.5,16.9,16.9,16.9c9.3,0,16.9-7.5,16.9-16.9&#10;&#9;&#9;c0,0,0,0,0,0C164.9,286.2,157.4,278.6,148.1,278.6L148.1,278.6z"/>
	<path class="st1_user-status-32" d="M142.3,304.5c-0.3,0-0.6,0-0.9-0.1c-0.8-0.3-1.5-0.9-1.7-1.7l-3.5-10c-0.4-1.5,0.4-3,1.9-3.4&#10;&#9;&#9;c1.3-0.4,2.8,0.3,3.3,1.6l2.3,6.6l12.1-8.3c1.2-0.9,2.9-0.7,3.9,0.5c0.9,1.2,0.7,2.9-0.5,3.9c-0.1,0-0.1,0.1-0.2,0.1L143.8,304&#10;&#9;&#9;C143.4,304.3,142.8,304.5,142.3,304.5z"/>
</g>
</svg>
