<svg version="1.1" id="Layer_1" xmlns="http://www.w3.org/2000/svg" xmlns:xlink="http://www.w3.org/1999/xlink" x="0px" y="0px" viewBox="162 180 160 140" style="width: 100px;" xml:space="preserve" data-imageid="user-status-32" imageName="User Status" class="illustrations_image">
<style type="text/css">
	.st0_user-status-32{fill:#FFFFFF;}
	.st1_user-status-32{fill:#093F68;}
	.st2_user-status-32{fill:#68E1FD;}
	.st3_user-status-32{fill:#725858;}
	.st4_user-status-32{fill:#FFC9B0;}
	.st5_user-status-32{fill:#70CC40;}
	.st6_user-status-32{fill:#F56132;}
</style>

 <g id="character-2_user-status-32">
	<path class="st0_user-status-32" d="M316.4,250c0,26.8-15.6,51-40,62.1c-4,1.8-8.1,3.2-12.3,4.2c-10.5,2.5-21.4,2.5-31.9,0&#10;&#9;&#9;c-4.2-1-8.3-2.4-12.3-4.2c-34.3-15.6-49.5-56-33.9-90.3s56-49.5,90.3-33.9C300.8,198.9,316.4,223.2,316.4,250z"/>
	<path class="st1_user-status-32" d="M248.2,320c-5.5,0-11-0.6-16.4-1.9c-4.3-1-8.6-2.5-12.6-4.3c-35.2-16-50.7-57.5-34.7-92.7s57.5-50.7,92.7-34.7&#10;&#9;&#9;s50.7,57.5,34.7,92.7c-7,15.4-19.3,27.7-34.7,34.7c-4.1,1.9-8.3,3.3-12.6,4.3C259.2,319.4,253.7,320.1,248.2,320z M248.2,183.6&#10;&#9;&#9;c-36.7,0-66.4,29.7-66.4,66.4c0,26,15.2,49.6,38.9,60.4c3.9,1.8,7.9,3.1,12,4.1c10.2,2.4,20.8,2.4,31,0c4.1-1,8.1-2.3,12-4.1&#10;&#9;&#9;c33.4-15.2,48.1-54.6,32.9-87.9C297.9,198.8,274.3,183.6,248.2,183.6L248.2,183.6z"/>
	<path class="st2_user-status-32 targetColor" d="M276.5,296.3v15.8c-4,1.8-8.1,3.2-12.3,4.2c-10.5,2.5-21.4,2.5-31.9,0c-4.2-1-8.3-2.4-12.3-4.2v-15.8&#10;&#9;&#9;c0-10.5,8.5-19.1,19.1-19.1c0,0,0,0,0,0h18.2C267.9,277.2,276.5,285.8,276.5,296.3z" style="fill: rgb(225, 29, 72);"/>
	<path class="st1_user-status-32" d="M248.2,320c-5.5,0-11-0.6-16.4-1.9c-4.3-1-8.6-2.5-12.6-4.3c-0.7-0.3-1.1-0.9-1.1-1.7v-15.8&#10;&#9;&#9;c0-11.6,9.4-20.9,20.9-21h18.2c11.6,0,20.9,9.4,20.9,21v15.8c0,0.7-0.4,1.4-1.1,1.7c-4.1,1.9-8.3,3.3-12.6,4.3&#10;&#9;&#9;C259.2,319.4,253.7,320.1,248.2,320z M221.8,310.9c3.5,1.5,7.2,2.7,10.9,3.6c10.2,2.4,20.8,2.4,31,0c3.7-0.9,7.4-2.1,10.9-3.6&#10;&#9;&#9;v-14.6c0-9.6-7.7-17.3-17.3-17.3h-18.2c-9.5,0-17.3,7.7-17.3,17.3L221.8,310.9z M276.5,312.1L276.5,312.1z"/>
	<polygon class="st0_user-status-32" points="248.2,313.7 243.9,279.7 253.3,280.1 &#9;"/>
	<path class="st1_user-status-32" d="M248.2,315.5L248.2,315.5c-0.9,0-1.7-0.7-1.8-1.6l-4.3-34c-0.1-0.5,0.1-1.1,0.5-1.5c0.4-0.4,0.9-0.6,1.4-0.6&#10;&#9;&#9;l9.4,0.4c0.5,0,1,0.3,1.3,0.7c0.3,0.4,0.5,0.9,0.4,1.4L250,314C249.9,314.9,249.1,315.5,248.2,315.5z M246,281.6l2.4,18.7l2.8-18.5&#10;&#9;&#9;L246,281.6z"/>
	<path class="st3_user-status-32" d="M245.8,199.4c1.2-0.2,2.4-0.3,3.6-0.3c5.5,0,11.2-0.1,16.2,2.3c10.4,5.2,16.9,15.7,17,27.3v22.6h-67.3&#10;&#9;&#9;c-0.4-1.3,0.2-2.9,0.3-4.2c0-1.5-0.3-2.9-0.7-4.4c-0.8-3.7-1.2-7.4-1.3-11.2c0-5.9,1.3-11.8,3.6-17.2c1.3-3.3,2.9-6.7,5.8-8.7&#10;&#9;&#9;s7.5-2.1,9.5,0.8C236.1,202.6,240.7,200.2,245.8,199.4z"/>
	<path class="st1_user-status-32" d="M282.6,253.2h-67.3c-0.8,0-1.5-0.5-1.8-1.3c-0.3-1.2-0.3-2.4,0-3.6c0.1-0.4,0.1-0.8,0.2-1.2c0-1-0.1-2-0.4-2.9&#10;&#9;&#9;c-0.1-0.3-0.1-0.7-0.2-1c-0.8-3.8-1.3-7.7-1.4-11.6c0-6.2,1.3-12.3,3.8-18c1.4-3.4,3.1-7.2,6.4-9.5c3-2.1,7.6-2.6,10.6-0.3&#10;&#9;&#9;c3.6-3.3,8.2-5.4,13-6.2l0,0c1.3-0.2,2.6-0.3,3.9-0.3h1c5.4,0,10.9,0,16,2.5c11,5.4,18,16.6,18.1,28.9v22.6&#10;&#9;&#9;C284.5,252.3,283.7,253.1,282.6,253.2C282.7,253.2,282.6,253.2,282.6,253.2z M217.1,249.5h63.7v-20.8c0-10.9-6.2-20.8-16-25.6&#10;&#9;&#9;c-4.4-2.1-9.2-2.1-14.4-2.1h-1c-1.1,0-2.2,0.1-3.3,0.3l0,0c-4.7,0.7-9,3-12.2,6.4c-0.7,0.7-1.9,0.8-2.6,0.1&#10;&#9;&#9;c-0.1-0.1-0.2-0.2-0.2-0.3c-1.4-2-4.9-1.8-7-0.3c-2.5,1.8-3.9,4.9-5.2,7.9c-2.3,5.2-3.5,10.8-3.5,16.5c0.1,3.7,0.5,7.3,1.3,10.9&#10;&#9;&#9;c0.1,0.3,0.1,0.6,0.2,0.9c0.3,1.3,0.5,2.6,0.5,3.9c0,0.6-0.1,1.1-0.2,1.7C217.1,249.1,217.1,249.3,217.1,249.5L217.1,249.5z&#10;&#9;&#9; M245.8,199.4L245.8,199.4z"/>
	<path class="st4_user-status-32" d="M243.7,273.6h9.6l0,0v7.4c0,1.2-1,2.2-2.2,2.2l0,0h-5.1c-1.2,0-2.2-1-2.2-2.2l0,0L243.7,273.6L243.7,273.6z"/>
	<path class="st1_user-status-32" d="M249.2,285h-1.4c-3.3,0-5.9-2.6-5.9-5.9v-5.5c0-1,0.8-1.8,1.8-1.8h9.6c1,0,1.8,0.8,1.8,1.8c0,0,0,0,0,0v5.5&#10;&#9;&#9;C255.1,282.4,252.5,285,249.2,285z M245.5,275.4v3.7c0,1.2,1,2.2,2.2,2.2l0,0h1.4c1.2,0,2.2-1,2.2-2.2c0,0,0,0,0,0v-3.7H245.5z"/>
	<ellipse class="st4_user-status-32" cx="221" cy="248.6" rx="9.3" ry="8"/>
	<path class="st1_user-status-32" d="M221,258.5c-6.2,0-11.2-4.4-11.2-9.9s5-9.9,11.2-9.9s11.2,4.4,11.2,9.9S227.2,258.5,221,258.5z M221,242.4&#10;&#9;&#9;c-4.1,0-7.5,2.8-7.5,6.2s3.4,6.2,7.5,6.2s7.5-2.8,7.5-6.2S225.1,242.4,221,242.4L221,242.4z"/>
	<ellipse class="st4_user-status-32" cx="275.4" cy="248.6" rx="9.3" ry="8"/>
	<path class="st1_user-status-32" d="M275.4,258.5c-6.2,0-11.2-4.4-11.2-9.9s5-9.9,11.2-9.9s11.2,4.4,11.2,9.9S281.6,258.5,275.4,258.5z&#10;&#9;&#9; M275.4,242.4c-4.1,0-7.5,2.8-7.5,6.2s3.4,6.2,7.5,6.2s7.5-2.8,7.5-6.2S279.6,242.4,275.4,242.4L275.4,242.4z"/>
	<path class="st4_user-status-32" d="M248.5,274.8L248.5,274.8c-15.5,0-28.1-12.6-28.1-28.1v-15.2c0,0,7.1-4.1,9.2-10.4c0,0,10.8,12.3,21.2,11.5&#10;&#9;&#9;c8.7-0.7,17.3-1.9,25.9-3.6v17.7C276.6,262.2,264,274.8,248.5,274.8z"/>
	<path class="st1_user-status-32" d="M248.5,276.6c-16.6,0-30-13.4-30-30l0,0v-15.1c0-0.7,0.4-1.3,0.9-1.6c0.1,0,6.5-3.8,8.4-9.4&#10;&#9;&#9;c0.2-0.6,0.7-1.1,1.4-1.2c0.6-0.1,1.3,0.1,1.7,0.6c0.1,0.1,10.4,11.6,19.7,10.9c8.6-0.7,17.2-1.9,25.6-3.6c1-0.2,2,0.4,2.2,1.4&#10;&#9;&#9;c0,0.1,0,0.3,0,0.4v17.7C278.4,263.2,265,276.6,248.5,276.6z M222.1,232.5v14.1c0,14.5,11.8,26.3,26.3,26.3s26.3-11.8,26.3-26.3&#10;&#9;&#9;l0,0v-15.5c-4.2,0.8-13.8,2.4-23.9,3.2c-8.6,0.7-17.1-6.4-20.8-10.1C228.1,227.6,225.4,230.4,222.1,232.5L222.1,232.5z"/>
	<path class="st1_user-status-32" d="M248.3,253.2c-0.9,0-1.8-0.1-2.7-0.2c-1-0.1-1.7-1.1-1.6-2.1c0.1-1,1.1-1.7,2.1-1.6c0.1,0,0.1,0,0.2,0&#10;&#9;&#9;c0.8,0.1,1.7,0.2,2.6,0.2c-0.5-1.7-1.2-3.3-2-4.8c-0.5-0.9-0.1-2,0.8-2.5c0.9-0.5,2-0.1,2.5,0.8c2.2,4.2,2.9,7,2.2,8.6&#10;&#9;&#9;c-0.3,0.7-0.9,1.2-1.6,1.4C249.9,253.1,249.1,253.2,248.3,253.2z"/>
	<path class="st1_user-status-32" d="M232.3,318.2c-1,0-1.8-0.8-1.8-1.8v-18.4c0-1,0.8-1.8,1.8-1.8s1.8,0.8,1.8,1.8v18.4&#10;&#9;&#9;C234.1,317.4,233.3,318.2,232.3,318.2z"/>
	<path class="st1_user-status-32" d="M264.1,318.2c-1,0-1.8-0.8-1.8-1.8c0,0,0,0,0,0v-18.4c0.1-1,1-1.8,2-1.7c0.9,0.1,1.6,0.8,1.7,1.7v18.4&#10;&#9;&#9;C266,317.4,265.2,318.2,264.1,318.2L264.1,318.2z"/>
</g>
<g id="wrong-mark_user-status-32">
	<circle class="st6_user-status-32" cx="301.3" cy="295.5" r="18.7"/>
	<path class="st1_user-status-32" d="M301.3,316c-11.3,0-20.5-9.2-20.5-20.5s9.2-20.5,20.5-20.5s20.5,9.2,20.5,20.5c0,0,0,0,0,0&#10;&#9;&#9;C321.8,306.8,312.6,316,301.3,316z M301.3,278.6c-9.3,0-16.9,7.5-16.9,16.9c0,9.3,7.5,16.9,16.9,16.9c9.3,0,16.9-7.5,16.9-16.9&#10;&#9;&#9;c0,0,0,0,0,0C318.2,286.2,310.6,278.6,301.3,278.6L301.3,278.6z"/>
	<path class="st1_user-status-32" d="M308.2,305.1c-0.7,0-1.4-0.3-1.9-0.8l-13.8-13.8c-1.1-1.1-1.1-2.8,0-3.9s2.8-1.1,3.9,0l0,0l13.8,13.8&#10;&#9;&#9;c1.1,1.1,1.1,2.8,0,3.9C309.6,304.8,309,305.1,308.2,305.1z"/>
	<path class="st1_user-status-32" d="M294.4,305.1c-1.5,0-2.7-1.2-2.7-2.8c0-0.7,0.3-1.4,0.8-1.9l13.8-13.8c1.1-1.1,2.8-1.1,3.9,0s1.1,2.8,0,3.9&#10;&#9;&#9;l0,0l-13.8,13.8C295.8,304.8,295.1,305.1,294.4,305.1z"/>
</g>

</svg>